<svg width="21" height="21" viewBox="0 0 21 21" fill="none" xmlns="http://www.w3.org/2000/svg">
<rect width="21" height="21" rx="4" fill="#FFD0D6"/>
<path fill-rule="evenodd" clip-rule="evenodd" d="M3.25 6C3.25 5.58579 3.58579 5.25 4 5.25H17.5C17.9142 5.25 18.25 5.58579 18.25 6C18.25 6.41421 17.9142 6.75 17.5 6.75H4C3.58579 6.75 3.25 6.41421 3.25 6Z" fill="#F14E63"/>
<path fill-rule="evenodd" clip-rule="evenodd" d="M9.25 3.75C9.05109 3.75 8.86032 3.82902 8.71967 3.96967C8.57902 4.11032 8.5 4.30109 8.5 4.5V5.25H13V4.5C13 4.30109 12.921 4.11032 12.7803 3.96967C12.6397 3.82902 12.4489 3.75 12.25 3.75H9.25ZM14.5 5.25V4.5C14.5 3.90326 14.2629 3.33097 13.841 2.90901C13.419 2.48705 12.8467 2.25 12.25 2.25H9.25C8.65326 2.25 8.08097 2.48705 7.65901 2.90901C7.23705 3.33097 7 3.90326 7 4.5V5.25H5.5C5.08579 5.25 4.75 5.58579 4.75 6V16.5C4.75 17.0967 4.98705 17.669 5.40901 18.091C5.83097 18.5129 6.40326 18.75 7 18.75H14.5C15.0967 18.75 15.669 18.5129 16.091 18.091C16.5129 17.669 16.75 17.0967 16.75 16.5V6C16.75 5.58579 16.4142 5.25 16 5.25H14.5ZM6.25 6.75V16.5C6.25 16.6989 6.32902 16.8897 6.46967 17.0303C6.61032 17.171 6.80109 17.25 7 17.25H14.5C14.6989 17.25 14.8897 17.171 15.0303 17.0303C15.171 16.8897 15.25 16.6989 15.25 16.5V6.75H6.25Z" fill="#F14E63"/>
<path fill-rule="evenodd" clip-rule="evenodd" d="M12.25 9C12.6642 9 13 9.33579 13 9.75V14.25C13 14.6642 12.6642 15 12.25 15C11.8358 15 11.5 14.6642 11.5 14.25V9.75C11.5 9.33579 11.8358 9 12.25 9Z" fill="#F14E63"/>
<path fill-rule="evenodd" clip-rule="evenodd" d="M9.25 9C9.66421 9 10 9.33579 10 9.75V14.25C10 14.6642 9.66421 15 9.25 15C8.83579 15 8.5 14.6642 8.5 14.25V9.75C8.5 9.33579 8.83579 9 9.25 9Z" fill="#F14E63"/>
</svg>
