<svg width="20" height="20" viewBox="0 0 20 20" fill="none" xmlns="http://www.w3.org/2000/svg">
<rect width="20" height="20" rx="4" fill="#EDF3FE"/>
<path fill-rule="evenodd" clip-rule="evenodd" d="M2.40636 3.98776C2.82662 3.5675 3.39662 3.3314 3.99096 3.3314H9.2093C9.62351 3.3314 9.9593 3.66718 9.9593 4.0814C9.9593 4.49561 9.62351 4.8314 9.2093 4.8314H3.99096C3.79444 4.8314 3.60598 4.90946 3.46702 5.04842C3.32806 5.18737 3.25 5.37584 3.25 5.57235V16.009C3.25 16.2056 3.32806 16.394 3.46702 16.533C3.60598 16.6719 3.79444 16.75 3.99096 16.75H14.4276C14.6242 16.75 14.8126 16.6719 14.9516 16.533C15.0905 16.394 15.1686 16.2056 15.1686 16.009V10.7907C15.1686 10.3765 15.5044 10.0407 15.9186 10.0407C16.3328 10.0407 16.6686 10.3765 16.6686 10.7907V16.009C16.6686 16.6034 16.4325 17.1734 16.0122 17.5936C15.592 18.0139 15.022 18.25 14.4276 18.25H3.99096C3.39662 18.25 2.82662 18.0139 2.40636 17.5936C1.9861 17.1734 1.75 16.6034 1.75 16.009V5.57235C1.75 4.97802 1.9861 4.40802 2.40636 3.98776Z" fill="#185ADC"/>
<path fill-rule="evenodd" clip-rule="evenodd" d="M15.9179 3.25C15.6974 3.25 15.4859 3.33759 15.33 3.49351L8.39488 10.4287L8.00296 11.9964L9.57066 11.6044L16.5058 4.66928C16.6617 4.51337 16.7493 4.3019 16.7493 4.0814C16.7493 3.8609 16.6617 3.64943 16.5058 3.49351C16.3499 3.33759 16.1384 3.25 15.9179 3.25ZM14.2694 2.43285C14.7066 1.99563 15.2996 1.75 15.9179 1.75C16.5362 1.75 17.1292 1.99563 17.5665 2.43285C18.0037 2.87007 18.2493 3.46307 18.2493 4.0814C18.2493 4.69972 18.0037 5.29272 17.5665 5.72994L10.4844 12.812C10.3883 12.9081 10.2679 12.9763 10.136 13.0093L7.15409 13.7547C6.8985 13.8186 6.62814 13.7437 6.44185 13.5575C6.25557 13.3712 6.18068 13.1008 6.24458 12.8452L6.99005 9.86332C7.02302 9.73144 7.09121 9.61101 7.18733 9.51489L14.2694 2.43285Z" fill="#185ADC"/>
</svg>
